<svg xmlns="http://www.w3.org/2000/svg" xmlns:xlink="http://www.w3.org/1999/xlink" width="500" zoomAndPan="magnify" viewBox="0 0 375 374.999991" height="500" preserveAspectRatio="xMidYMid meet" version="1.0"><defs><g/></defs><g fill="#ffa115" fill-opacity="1"><g transform="translate(86.941588, 225.755486)"><g><path d="M 13.121094 -11.164062 L 12.980469 -11.027344 C 13.121094 -11.164062 13.121094 -11.164062 13.121094 -11.304688 L 13.121094 -12.003906 C 14.65625 -20.238281 17.585938 -28.332031 20.515625 -36.289062 C 23.585938 -44.660156 26.519531 -52.894531 30.425781 -60.851562 C 34.054688 -68.386719 38.242188 -75.785156 42.988281 -82.625 C 47.171875 -88.90625 52.199219 -95.742188 58.617188 -99.929688 C 60.574219 -100.488281 62.527344 -102.582031 65.039062 -102.164062 C 67.550781 -101.746094 67.550781 -99.09375 66.992188 -96.582031 C 67.691406 -98.535156 68.109375 -100.628906 66.433594 -102.023438 C 64.199219 -103.699219 59.875 -101.046875 58.058594 -99.789062 C 57.222656 -99.511719 56.386719 -98.953125 55.6875 -98.394531 C 56.105469 -98.8125 56.664062 -99.234375 57.363281 -99.652344 L 56.664062 -99.371094 L 58.617188 -100.488281 C 60.851562 -101.746094 65.875 -104.535156 67.550781 -100.90625 C 68.808594 -97.976562 66.851562 -93.089844 65.875 -90.300781 C 64.0625 -85.554688 61.828125 -81.089844 59.457031 -76.621094 C 59.875 -77.597656 61.550781 -81.367188 61.550781 -81.367188 C 60.574219 -81.507812 56.105469 -71.179688 55.269531 -70.898438 L 55.410156 -70.898438 C 54.851562 -70.480469 54.429688 -70.0625 54.429688 -69.921875 C 54.152344 -68.25 56.105469 -68.667969 57.222656 -68.808594 C 61.96875 -69.363281 68.109375 -73.414062 71.179688 -76.902344 C 74.527344 -80.671875 75.785156 -86.390625 75.785156 -91.417969 L 75.785156 -91.554688 C 75.644531 -101.046875 69.085938 -113.050781 57.78125 -112.351562 C 51.5 -112.074219 45.636719 -105.933594 41.589844 -101.746094 C 38.660156 -98.394531 35.867188 -94.765625 33.355469 -91.136719 C 32.238281 -89.460938 31.125 -87.925781 30.148438 -86.253906 C 29.03125 -84.71875 26.796875 -82.34375 26.238281 -80.53125 C 26.238281 -80.53125 26.9375 -81.367188 27.496094 -81.925781 C 25.960938 -79.554688 24.5625 -77.042969 23.167969 -74.667969 C 23.027344 -74.808594 24.003906 -76.761719 24.003906 -76.761719 C 22.75 -77.042969 17.027344 -65.597656 16.328125 -64.339844 C 13.816406 -59.734375 11.585938 -55.128906 10.050781 -50.246094 C 8.375 -44.800781 6.140625 -39.636719 4.464844 -34.332031 C 3.628906 -31.683594 2.792969 -29.167969 2.234375 -26.519531 C 1.953125 -25.261719 1.675781 -24.144531 1.535156 -22.890625 C 1.535156 -22.75 1.257812 -20.515625 1.535156 -20.796875 C 1.257812 -19.820312 1.257812 -18.5625 1.117188 -17.585938 C 1.117188 -17.585938 1.117188 -19.957031 1.257812 -20.238281 C 0.699219 -19.539062 1.117188 -16.886719 0.976562 -16.609375 C 0.277344 -11.304688 -0.835938 -5.722656 0.976562 -0.558594 C 3.351562 6.558594 9.210938 12.421875 15.632812 16.191406 C 18.980469 18.285156 23.449219 20.65625 27.632812 20.375 C 32.519531 20.097656 37.265625 16.050781 40.894531 13.121094 C 51.5 4.1875 61.128906 -8.375 62.945312 -22.609375 C 63.085938 -23.585938 63.78125 -28.472656 62.109375 -28.613281 C 60.574219 -28.75 59.457031 -25.402344 58.898438 -24.5625 C 54.710938 -17.726562 49.824219 -11.304688 44.382812 -5.441406 C 38.800781 0.699219 31.820312 7.257812 23.308594 9.210938 C 22.191406 9.492188 20.933594 9.628906 19.679688 9.628906 C 18.003906 9.492188 16.46875 9.070312 15.210938 7.816406 C 14.515625 7.117188 13.816406 4.746094 12.980469 4.328125 C 12.980469 3.628906 12.839844 2.929688 12.699219 2.511719 L 12.28125 1.675781 C 12.140625 -2.511719 12.28125 -6.421875 12.980469 -10.746094 L 12.980469 -10.886719 C 12.980469 -11.027344 13.121094 -11.027344 13.121094 -11.164062 Z M 37.683594 -79.414062 C 32.238281 -70.480469 27.632812 -61.269531 23.027344 -51.78125 C 20.375 -46.195312 17.726562 -40.472656 15.632812 -34.472656 C 18.5625 -43.824219 22.050781 -52.757812 26.238281 -61.6875 C 31.261719 -72.433594 37.960938 -82.902344 45.917969 -91.554688 C 42.707031 -87.648438 39.917969 -83.183594 37.683594 -79.414062 Z M 52.058594 -94.765625 C 50.105469 -92.8125 48.289062 -90.578125 46.617188 -88.484375 C 49.265625 -91.976562 52.058594 -95.464844 55.546875 -98.253906 C 54.292969 -97.140625 53.035156 -95.742188 52.058594 -94.765625 Z M 66.292969 -93.648438 C 66.574219 -94.488281 66.851562 -95.464844 66.992188 -96.582031 C 66.714844 -95.324219 66.15625 -94.070312 66.15625 -93.089844 C 66.292969 -93.371094 66.292969 -93.511719 66.292969 -93.648438 Z M 66.292969 -93.648438 "/></g></g></g><g fill="#ffa115" fill-opacity="1"><g transform="translate(156.581297, 225.755486)"><g><path d="M 69.226562 -34.332031 C 68.527344 -34.332031 67.550781 -32.9375 67.132812 -32.519531 C 65.179688 -30.566406 63.503906 -28.332031 61.828125 -26.238281 C 57.222656 -20.933594 52.617188 -15.492188 47.59375 -10.605469 C 46.335938 -9.492188 43.125 -5.722656 41.3125 -6.976562 C 40.195312 -7.675781 41.171875 -12.140625 41.3125 -13.121094 C 41.589844 -14.375 44.101562 -20.933594 43.265625 -21.773438 C 42.847656 -22.050781 42.148438 -19.957031 42.011719 -19.820312 C 44.242188 -27.632812 48.710938 -36.566406 52.335938 -44.242188 C 54.429688 -48.429688 57.082031 -53.59375 53.59375 -57.921875 C 47.453125 -65.457031 39.777344 -55.828125 35.589844 -51.359375 C 33.773438 -49.40625 16.191406 -27.914062 16.46875 -27.773438 C 16.46875 -27.773438 17.726562 -29.308594 19.539062 -31.402344 C 16.886719 -27.914062 14.375 -24.425781 12.003906 -20.796875 C 13.539062 -26.519531 15.210938 -32.101562 17.027344 -37.683594 C 18.003906 -40.472656 18.839844 -43.40625 19.820312 -46.335938 C 20.933594 -49.40625 21.773438 -50.664062 24.144531 -52.894531 C 28.191406 -56.523438 32.101562 -60.433594 35.730469 -64.621094 C 37.125 -66.292969 38.101562 -68.25 39.496094 -69.785156 C 40.753906 -71.039062 42.566406 -72.15625 43.964844 -73.691406 C 51.082031 -82.066406 56.804688 -92.535156 61.550781 -102.304688 C 63.644531 -106.910156 65.597656 -111.652344 66.992188 -116.539062 C 67.273438 -117.65625 70.34375 -130.496094 69.644531 -130.496094 C 69.503906 -130.496094 69.503906 -130.355469 69.363281 -130.078125 C 69.503906 -132.308594 69.363281 -134.820312 68.527344 -137.054688 C 68.667969 -137.054688 69.363281 -134.960938 69.363281 -134.960938 C 70.203125 -135.519531 67.691406 -139.847656 67.132812 -140.40625 C 65.875 -141.660156 64.0625 -142.359375 62.246094 -142.359375 C 58.617188 -142.636719 55.269531 -140.683594 52.476562 -138.589844 C 47.171875 -134.542969 43.40625 -128.542969 39.496094 -123.097656 C 37.265625 -120.027344 35.171875 -116.957031 33.21875 -113.746094 C 31.820312 -111.652344 28.75 -107.886719 28.75 -105.375 C 28.890625 -105.234375 29.03125 -105.234375 29.03125 -105.234375 L 27.355469 -102.023438 C 27.355469 -102.023438 28.191406 -104.535156 28.332031 -104.675781 C 27.632812 -104.257812 26.9375 -101.324219 26.9375 -101.1875 C 21.492188 -90.578125 15.769531 -80.390625 12.003906 -69.085938 C 7.675781 -56.386719 4.464844 -43.265625 2.09375 -30.148438 C 0.976562 -24.144531 -0.417969 -17.585938 0.140625 -11.445312 C 0.140625 -9.769531 0.277344 -7.816406 1.535156 -6.421875 C 3.070312 -4.464844 6.28125 -3.769531 8.09375 -5.722656 C 8.652344 -6.421875 8.652344 -6.839844 8.933594 -7.535156 L 11.445312 -12.003906 C 14.792969 -17.167969 18.839844 -21.910156 22.050781 -27.214844 C 22.46875 -28.054688 22.890625 -29.03125 23.449219 -29.726562 C 24.144531 -30.566406 24.425781 -30.148438 25.261719 -30.84375 C 27.632812 -32.796875 29.449219 -35.730469 31.402344 -38.101562 C 35.449219 -43.125 39.496094 -48.847656 44.660156 -53.035156 L 40.613281 -43.265625 L 41.03125 -43.683594 L 38.9375 -38.9375 C 38.800781 -39.078125 39.359375 -40.335938 39.359375 -40.472656 C 38.800781 -40.472656 36.148438 -35.03125 35.867188 -34.472656 C 34.195312 -31.125 32.378906 -27.773438 31.402344 -24.285156 C 30.566406 -20.933594 29.589844 -17.585938 28.613281 -14.234375 C 28.191406 -12.140625 27.773438 -10.050781 27.914062 -7.957031 C 27.914062 -7.398438 29.03125 -2.371094 29.449219 -2.792969 L 29.449219 -3.351562 C 29.726562 -2.511719 30.007812 -1.8125 30.425781 -1.117188 L 29.589844 -2.371094 C 29.167969 -1.394531 32.9375 1.8125 33.355469 2.234375 C 35.449219 4.328125 37.542969 5.722656 40.753906 5.863281 C 43.40625 6 44.800781 5.023438 46.753906 3.210938 C 52.058594 -1.953125 55.828125 -9.070312 59.875 -15.210938 C 62.109375 -18.421875 64.339844 -21.773438 66.433594 -25.121094 C 66.992188 -25.820312 70.761719 -33.636719 70.203125 -33.496094 C 71.039062 -33.636719 69.503906 -34.332031 69.226562 -34.332031 Z M 57.082031 -128.261719 L 57.082031 -128.402344 C 57.082031 -128.402344 57.222656 -128.402344 57.222656 -128.542969 L 57.222656 -128.402344 C 57.363281 -128.679688 57.5 -128.960938 57.363281 -128.820312 C 58.480469 -130.496094 61.269531 -135.519531 63.222656 -133.84375 C 65.179688 -132.171875 63.363281 -126.308594 62.804688 -124.214844 C 61.6875 -119.886719 60.015625 -115.703125 58.339844 -111.652344 C 54.988281 -103.839844 50.800781 -96.441406 46.195312 -89.183594 C 43.964844 -85.695312 41.589844 -82.207031 39.21875 -78.855469 C 37.960938 -77.179688 36.707031 -75.507812 35.3125 -73.832031 L 34.195312 -72.574219 L 36.707031 -75.085938 L 42.289062 -82.902344 C 45.359375 -87.089844 48.289062 -91.695312 51.082031 -96.300781 C 43.964844 -83.742188 35.3125 -71.878906 25.261719 -61.269531 L 29.449219 -72.296875 C 29.867188 -73.132812 32.796875 -81.367188 32.796875 -81.367188 C 32.519531 -81.226562 32.101562 -80.53125 31.683594 -79.832031 C 35.03125 -87.507812 39.359375 -95.464844 43.265625 -103.140625 C 47.59375 -111.515625 51.917969 -120.167969 56.945312 -128.121094 C 56.945312 -128.121094 57.082031 -128.121094 57.082031 -128.261719 Z M 22.050781 -59.875 C 23.308594 -67.410156 26.796875 -74.527344 29.308594 -81.785156 C 31.542969 -87.925781 35.171875 -93.511719 37.960938 -99.371094 C 39.21875 -102.164062 52.617188 -127.703125 52.894531 -127.566406 C 54.011719 -126.867188 36.847656 -94.070312 35.03125 -90.160156 C 33.496094 -87.230469 32.101562 -84.4375 30.984375 -81.226562 C 30.007812 -78.15625 28.332031 -75.644531 27.214844 -72.714844 C 26.65625 -71.320312 21.074219 -56.664062 21.492188 -56.523438 C 21.214844 -56.523438 21.773438 -58.757812 21.910156 -59.457031 Z M 31.683594 -69.644531 C 31.960938 -69.921875 32.238281 -70.480469 32.660156 -70.898438 C 32.238281 -70.480469 31.960938 -70.0625 31.683594 -69.644531 Z M 57.082031 -128.261719 L 57.082031 -128.402344 L 57.222656 -128.402344 Z M 22.050781 -59.734375 C 22.050781 -59.59375 21.910156 -59.457031 21.910156 -59.457031 C 21.910156 -59.59375 22.050781 -59.59375 22.050781 -59.734375 Z M 22.050781 -59.734375 "/></g></g></g><g fill="#ffa115" fill-opacity="1"><g transform="translate(216.731027, 225.755486)"><g><path d="M 36.566406 -34.332031 C 36.289062 -36.148438 34.332031 -35.589844 33.355469 -34.890625 C 32.101562 -34.054688 25.121094 -24.84375 25.679688 -24.144531 C 26.097656 -24.144531 26.378906 -24.144531 26.65625 -24.425781 C 24.703125 -22.050781 21.074219 -19.398438 18.421875 -17.304688 C 16.886719 -16.050781 13.121094 -12.5625 10.886719 -13.675781 C 6.140625 -16.050781 15.769531 -32.796875 15.351562 -32.9375 C 14.933594 -33.078125 11.445312 -25.261719 10.746094 -23.449219 C 12.421875 -28.332031 14.65625 -33.21875 17.304688 -37.542969 C 17.167969 -37.125 16.75 -36.425781 17.027344 -36.425781 C 17.304688 -36.289062 19.398438 -39.21875 18.980469 -39.496094 C 18.839844 -39.496094 18.5625 -39.496094 18.421875 -39.359375 C 18.839844 -39.777344 19.539062 -39.917969 19.539062 -40.753906 C 19.539062 -42.148438 16.328125 -43.546875 15.210938 -43.964844 C 12.5625 -45.082031 9.910156 -45.359375 7.816406 -43.964844 C 5.023438 -42.289062 4.464844 -38.9375 3.351562 -36.007812 C 3.070312 -35.171875 0.417969 -25.261719 0.976562 -25.121094 C 1.257812 -25.261719 1.257812 -25.402344 1.394531 -25.679688 L 0.976562 -23.167969 C 0.835938 -23.167969 1.117188 -23.867188 0.835938 -23.867188 C -0.277344 -23.867188 0 -18.839844 0.140625 -18.144531 C 0.699219 -15.632812 2.652344 -13.816406 4.1875 -11.722656 C 5.023438 -10.46875 5.863281 -9.210938 7.117188 -8.375 C 8.792969 -7.117188 7.675781 -8.375 8.792969 -7.816406 L 8.511719 -7.816406 C 8.375 -6.976562 13.675781 -5.582031 14.792969 -5.722656 C 19.679688 -6.839844 23.167969 -12.839844 25.960938 -16.609375 C 28.613281 -19.957031 30.84375 -23.308594 33.21875 -26.796875 C 34.613281 -28.613281 37.125 -31.683594 36.566406 -34.332031 Z M 12.140625 -51.917969 C 12.421875 -51.5 12.003906 -50.941406 12.980469 -50.382812 C 13.957031 -49.964844 14.515625 -50.523438 15.351562 -50.800781 C 17.027344 -51.5 18.285156 -53.316406 19.539062 -54.429688 C 19.957031 -54.710938 19.121094 -54.570312 19.121094 -54.570312 C 20.933594 -56.246094 19.398438 -54.292969 21.074219 -55.269531 C 22.75 -56.386719 23.027344 -58.199219 24.425781 -59.734375 C 22.75 -59.035156 21.492188 -58.058594 20.375 -56.664062 C 18.980469 -54.851562 18.003906 -54.011719 16.46875 -53.035156 C 18.144531 -54.292969 18.980469 -55.546875 20.375 -57.78125 C 20.796875 -58.199219 21.214844 -58.480469 21.773438 -58.757812 C 21.355469 -59.175781 21.355469 -59.59375 21.910156 -60.015625 C 22.332031 -60.710938 23.167969 -60.992188 23.585938 -61.6875 C 24.285156 -62.664062 24.144531 -63.921875 24.984375 -64.898438 C 25.679688 -65.457031 26.65625 -65.875 27.214844 -66.433594 C 28.472656 -67.550781 29.867188 -69.644531 29.308594 -71.457031 C 28.75 -73.132812 27.355469 -75.226562 25.820312 -76.203125 C 24.003906 -77.179688 21.492188 -77.597656 19.539062 -76.761719 C 19.121094 -76.621094 17.445312 -76.203125 18.003906 -75.644531 C 18.144531 -75.367188 18.285156 -75.367188 18.5625 -75.367188 C 17.304688 -74.390625 15.210938 -72.714844 18.144531 -71.597656 C 17.863281 -71.320312 18.144531 -70.0625 18.144531 -69.921875 C 18.003906 -68.945312 16.050781 -63.78125 14.792969 -61.269531 L 16.46875 -63.78125 C 15.492188 -61.6875 14.375 -59.734375 13.121094 -58.058594 C 13.957031 -59.875 12.28125 -57.78125 12.28125 -57.363281 C 10.746094 -58.058594 11.164062 -53.734375 11.304688 -53.316406 C 11.304688 -53.175781 12.140625 -51.917969 12.140625 -51.917969 Z M 9.492188 -18.703125 L 9.492188 -18.5625 L 9.210938 -17.726562 L 9.492188 -18.839844 C 9.628906 -18.980469 9.628906 -18.980469 9.492188 -18.703125 Z M 14.097656 -60.152344 C 14.097656 -60.152344 14.375 -60.433594 14.65625 -60.992188 Z M 12.699219 -57.5 C 12.699219 -57.363281 12.699219 -57.363281 12.5625 -57.222656 C 12.5625 -57.222656 12.5625 -57.363281 12.421875 -57.363281 C 12.5625 -57.363281 12.5625 -57.363281 12.699219 -57.5 Z M 12.699219 -57.5 "/></g></g></g><g fill="#ffa115" fill-opacity="1"><g transform="translate(243.107597, 225.755486)"><g><path d="M 50.523438 -25.820312 C 51.78125 -27.632812 56.804688 -32.9375 54.710938 -35.3125 C 51.917969 -38.101562 44.660156 -26.519531 43.546875 -25.121094 C 41.3125 -22.191406 38.9375 -19.398438 36.707031 -16.609375 C 35.449219 -15.074219 34.195312 -13.539062 32.796875 -12.140625 C 32.519531 -11.863281 29.867188 -8.511719 30.148438 -8.511719 C 30.566406 -8.652344 30.984375 -8.933594 31.402344 -9.210938 C 29.03125 -6.699219 25.820312 -4.464844 22.890625 -2.234375 C 20.933594 -0.835938 17.167969 2.234375 14.792969 0.558594 C 13.816406 0 13.539062 -1.394531 13.257812 -2.371094 C 12.28125 -6.699219 12.980469 -11.863281 13.675781 -16.328125 C 15.210938 -25.679688 18.285156 -34.890625 22.050781 -43.683594 C 23.867188 -47.730469 25.679688 -51.78125 28.890625 -54.851562 C 29.167969 -55.128906 29.726562 -54.570312 29.867188 -54.710938 C 30.148438 -54.851562 29.03125 -55.269531 28.890625 -55.128906 C 27.355469 -54.292969 26.378906 -52.617188 25.539062 -51.082031 C 23.027344 -47.035156 21.074219 -42.566406 19.398438 -38.101562 C 20.65625 -41.589844 22.050781 -45.082031 23.726562 -48.570312 C 24.703125 -50.382812 25.820312 -53.316406 27.632812 -54.710938 C 32.378906 -58.480469 30.566406 -46.058594 30.007812 -44.242188 C 30.007812 -44.382812 30.566406 -47.453125 30.425781 -47.453125 C 30.148438 -47.453125 28.191406 -40.335938 28.191406 -40.335938 L 28.890625 -40.894531 C 28.191406 -39.777344 26.796875 -38.9375 28.613281 -37.683594 C 30.84375 -36.148438 35.171875 -38.800781 36.148438 -40.753906 C 37.125 -42.847656 37.402344 -45.636719 37.542969 -47.730469 C 37.824219 -51.359375 36.847656 -53.453125 35.589844 -56.246094 C 34.195312 -59.175781 32.9375 -60.992188 29.167969 -61.550781 C 26.097656 -61.96875 23.308594 -60.710938 20.933594 -58.898438 C 17.445312 -56.386719 14.792969 -53.175781 12.5625 -49.546875 C 12.003906 -48.570312 6.976562 -38.382812 7.117188 -38.242188 L 7.675781 -38.9375 C 6.976562 -37.402344 6.558594 -35.867188 6 -34.472656 C 5.863281 -34.472656 6.28125 -35.730469 6.140625 -35.730469 C 5.304688 -35.867188 2.792969 -28.191406 2.652344 -27.496094 C 1.675781 -24.5625 0.976562 -21.632812 0.835938 -18.5625 C 0.699219 -15.210938 0.140625 -11.863281 0 -8.375 C 0 -6.558594 0 -4.605469 0.277344 -2.792969 C 0.277344 -2.234375 1.394531 0.699219 1.394531 -0.140625 L 2.09375 2.234375 C 1.953125 2.09375 1.394531 0.699219 1.394531 0.699219 C 0.699219 1.535156 4.464844 6.976562 5.304688 7.816406 C 6.421875 9.070312 8.09375 9.628906 9.769531 9.910156 C 15.351562 10.605469 20.65625 7.398438 24.703125 4.046875 C 31.683594 -1.8125 38.519531 -9.070312 43.683594 -16.609375 C 45.777344 -19.820312 48.152344 -22.75 50.523438 -25.820312 Z M 9.628906 -36.007812 C 9.351562 -34.613281 8.933594 -33.078125 8.375 -31.820312 C 7.957031 -30.84375 6.699219 -30.007812 6.558594 -29.308594 C 6.839844 -31.683594 8.652344 -34.054688 9.769531 -36.707031 C 9.769531 -36.425781 9.628906 -36.148438 9.628906 -36.007812 Z M 4.464844 -19.679688 C 3.90625 -18.703125 3.90625 -16.886719 3.90625 -15.351562 C 3.769531 -17.027344 3.769531 -18.839844 4.328125 -20.515625 C 4.328125 -20.515625 4.746094 -19.957031 4.464844 -19.679688 Z M 14.515625 -23.027344 C 15.074219 -25.261719 15.769531 -27.496094 16.46875 -29.726562 Z M 4.746094 -22.332031 C 4.605469 -21.910156 4.328125 -21.355469 4.328125 -21.074219 C 4.328125 -21.773438 4.328125 -22.46875 5.023438 -22.75 Z M 17.027344 -31.402344 C 16.886719 -31.261719 16.886719 -31.261719 16.886719 -31.125 C 16.886719 -31.402344 16.886719 -31.683594 17.027344 -31.960938 Z M 17.027344 -31.402344 "/></g></g></g><g fill="#31231d" fill-opacity="1"><g transform="translate(95.587208, 260.242629)"><g><path d="M 0.765625 -7.625 L 4.359375 -7.625 C 5.222656 -7.625 5.90625 -7.453125 6.40625 -7.109375 C 6.914062 -6.765625 7.171875 -6.300781 7.171875 -5.71875 C 7.171875 -5.320312 7.050781 -4.972656 6.8125 -4.671875 C 6.582031 -4.367188 6.265625 -4.160156 5.859375 -4.046875 C 6.335938 -3.953125 6.71875 -3.726562 7 -3.375 C 7.28125 -3.03125 7.421875 -2.609375 7.421875 -2.109375 C 7.421875 -1.460938 7.15625 -0.945312 6.625 -0.5625 C 6.101562 -0.1875 5.394531 0 4.5 0 L 0.765625 0 Z M 2.6875 -6.140625 L 2.6875 -4.578125 L 4.265625 -4.578125 C 4.546875 -4.578125 4.769531 -4.644531 4.9375 -4.78125 C 5.101562 -4.925781 5.1875 -5.125 5.1875 -5.375 C 5.1875 -5.613281 5.101562 -5.800781 4.9375 -5.9375 C 4.769531 -6.070312 4.546875 -6.140625 4.265625 -6.140625 Z M 2.6875 -3.1875 L 2.6875 -1.484375 L 4.265625 -1.484375 C 4.617188 -1.484375 4.898438 -1.5625 5.109375 -1.71875 C 5.316406 -1.875 5.421875 -2.085938 5.421875 -2.359375 C 5.421875 -2.609375 5.316406 -2.804688 5.109375 -2.953125 C 4.898438 -3.109375 4.617188 -3.1875 4.265625 -3.1875 Z M 2.6875 -3.1875 "/></g></g></g><g fill="#31231d" fill-opacity="1"><g transform="translate(108.146489, 260.242629)"><g><path d="M 4.6875 -2.46875 L 4.6875 0 L 2.765625 0 L 2.765625 -2.40625 L -0.046875 -7.625 L 1.890625 -7.625 L 3.71875 -4.296875 L 5.515625 -7.625 L 7.453125 -7.625 Z M 4.6875 -2.46875 "/></g></g></g><g fill="#31231d" fill-opacity="1"><g transform="translate(120.324738, 260.242629)"><g/></g></g><g fill="#31231d" fill-opacity="1"><g transform="translate(127.625733, 260.242629)"><g><path d="M 4.328125 -7.6875 C 4.898438 -7.6875 5.457031 -7.566406 6 -7.328125 C 6.550781 -7.097656 7.019531 -6.789062 7.40625 -6.40625 L 6.28125 -5.078125 C 6.03125 -5.378906 5.734375 -5.617188 5.390625 -5.796875 C 5.046875 -5.972656 4.703125 -6.0625 4.359375 -6.0625 C 3.765625 -6.0625 3.265625 -5.847656 2.859375 -5.421875 C 2.453125 -5.003906 2.25 -4.484375 2.25 -3.859375 C 2.25 -3.210938 2.453125 -2.675781 2.859375 -2.25 C 3.265625 -1.820312 3.765625 -1.609375 4.359375 -1.609375 C 4.679688 -1.609375 5.015625 -1.6875 5.359375 -1.84375 C 5.703125 -2.007812 6.007812 -2.226562 6.28125 -2.5 L 7.421875 -1.3125 C 7.003906 -0.882812 6.515625 -0.539062 5.953125 -0.28125 C 5.390625 -0.03125 4.828125 0.09375 4.265625 0.09375 C 3.117188 0.09375 2.164062 -0.28125 1.40625 -1.03125 C 0.644531 -1.78125 0.265625 -2.710938 0.265625 -3.828125 C 0.265625 -4.929688 0.648438 -5.847656 1.421875 -6.578125 C 2.203125 -7.316406 3.171875 -7.6875 4.328125 -7.6875 Z M 4.328125 -7.6875 "/></g></g></g><g fill="#31231d" fill-opacity="1"><g transform="translate(139.934617, 260.242629)"><g><path d="M 5.828125 -1.40625 L 2.5 -1.40625 L 1.9375 0 L -0.046875 0 L 3.234375 -7.625 L 5.234375 -7.625 L 8.4375 0 L 6.375 0 Z M 5.265625 -2.875 L 4.171875 -5.703125 L 3.0625 -2.875 Z M 5.265625 -2.875 "/></g></g></g><g fill="#31231d" fill-opacity="1"><g transform="translate(153.092679, 260.242629)"><g><path d="M 9.140625 0 L 7.421875 0 L 7.421875 -4.953125 L 5.59375 -0.765625 L 4.328125 -0.765625 L 2.5 -4.953125 L 2.5 0 L 0.765625 0 L 0.765625 -7.640625 L 2.890625 -7.640625 L 4.953125 -3.09375 L 7.03125 -7.640625 L 9.140625 -7.640625 Z M 9.140625 0 "/></g></g></g><g fill="#31231d" fill-opacity="1"><g transform="translate(167.774875, 260.242629)"><g><path d="M 2.703125 0 L 0.765625 0 L 0.765625 -7.625 L 2.703125 -7.625 Z M 2.703125 0 "/></g></g></g><g fill="#31231d" fill-opacity="1"><g transform="translate(176.012126, 260.242629)"><g><path d="M 2.703125 -1.625 L 5.9375 -1.625 L 5.9375 0 L 0.765625 0 L 0.765625 -7.625 L 2.703125 -7.625 Z M 2.703125 -1.625 "/></g></g></g><g fill="#31231d" fill-opacity="1"><g transform="translate(186.883966, 260.242629)"><g><path d="M 5.828125 -1.40625 L 2.5 -1.40625 L 1.9375 0 L -0.046875 0 L 3.234375 -7.625 L 5.234375 -7.625 L 8.4375 0 L 6.375 0 Z M 5.265625 -2.875 L 4.171875 -5.703125 L 3.0625 -2.875 Z M 5.265625 -2.875 "/></g></g></g><g fill="#31231d" fill-opacity="1"><g transform="translate(200.042028, 260.242629)"><g/></g></g><g fill="#31231d" fill-opacity="1"><g transform="translate(207.343026, 260.242629)"><g><path d="M 6.59375 -6.0625 L 4.296875 -6.0625 L 4.296875 0 L 2.359375 0 L 2.359375 -6.0625 L 0.078125 -6.0625 L 0.078125 -7.640625 L 6.59375 -7.640625 Z M 6.59375 -6.0625 "/></g></g></g><g fill="#31231d" fill-opacity="1"><g transform="translate(218.770088, 260.242629)"><g><path d="M 4.375 -7.6875 C 5.5625 -7.6875 6.546875 -7.316406 7.328125 -6.578125 C 8.109375 -5.847656 8.5 -4.929688 8.5 -3.828125 C 8.5 -2.710938 8.101562 -1.78125 7.3125 -1.03125 C 6.53125 -0.28125 5.550781 0.09375 4.375 0.09375 C 3.195312 0.09375 2.21875 -0.273438 1.4375 -1.015625 C 0.65625 -1.765625 0.265625 -2.703125 0.265625 -3.828125 C 0.265625 -4.929688 0.65625 -5.847656 1.4375 -6.578125 C 2.21875 -7.316406 3.195312 -7.6875 4.375 -7.6875 Z M 4.40625 -6.0625 C 3.800781 -6.0625 3.289062 -5.84375 2.875 -5.40625 C 2.457031 -4.976562 2.25 -4.445312 2.25 -3.8125 C 2.25 -3.175781 2.457031 -2.632812 2.875 -2.1875 C 3.300781 -1.75 3.804688 -1.53125 4.390625 -1.53125 C 4.984375 -1.53125 5.484375 -1.75 5.890625 -2.1875 C 6.304688 -2.632812 6.515625 -3.175781 6.515625 -3.8125 C 6.515625 -4.445312 6.304688 -4.976562 5.890625 -5.40625 C 5.484375 -5.84375 4.988281 -6.0625 4.40625 -6.0625 Z M 4.40625 -6.0625 "/></g></g></g><g fill="#31231d" fill-opacity="1"><g transform="translate(232.30918, 260.242629)"><g><path d="M 2.703125 -1.625 L 5.9375 -1.625 L 5.9375 0 L 0.765625 0 L 0.765625 -7.625 L 2.703125 -7.625 Z M 2.703125 -1.625 "/></g></g></g><g fill="#31231d" fill-opacity="1"><g transform="translate(243.181021, 260.242629)"><g><path d="M 5.828125 -1.40625 L 2.5 -1.40625 L 1.9375 0 L -0.046875 0 L 3.234375 -7.625 L 5.234375 -7.625 L 8.4375 0 L 6.375 0 Z M 5.265625 -2.875 L 4.171875 -5.703125 L 3.0625 -2.875 Z M 5.265625 -2.875 "/></g></g></g><g fill="#31231d" fill-opacity="1"><g transform="translate(256.339082, 260.242629)"><g><path d="M 9.140625 0 L 7.421875 0 L 7.421875 -4.953125 L 5.59375 -0.765625 L 4.328125 -0.765625 L 2.5 -4.953125 L 2.5 0 L 0.765625 0 L 0.765625 -7.640625 L 2.890625 -7.640625 L 4.953125 -3.09375 L 7.03125 -7.640625 L 9.140625 -7.640625 Z M 9.140625 0 "/></g></g></g><g fill="#31231d" fill-opacity="1"><g transform="translate(271.021279, 260.242629)"><g><path d="M 5.828125 -1.40625 L 2.5 -1.40625 L 1.9375 0 L -0.046875 0 L 3.234375 -7.625 L 5.234375 -7.625 L 8.4375 0 L 6.375 0 Z M 5.265625 -2.875 L 4.171875 -5.703125 L 3.0625 -2.875 Z M 5.265625 -2.875 "/></g></g></g></svg>