<?xml version="1.0" standalone="no"?>
<svg xmlns:xlink="http://www.w3.org/1999/xlink" id="wave" style="transform:rotate(0deg); transition: 0.3s" viewBox="0 0 1440 190" version="1.1" xmlns="http://www.w3.org/2000/svg"><defs><linearGradient id="sw-gradient-0" x1="0" x2="0" y1="1" y2="0"><stop stop-color="rgba(237.106, 237.106, 237.106, 1)" offset="0%"/><stop stop-color="rgba(255, 255, 255, 1)" offset="100%"/></linearGradient></defs><path style="transform:translate(0, 0px); opacity:1" fill="url(#sw-gradient-0)" d="M0,171L84.7,171L169.4,114L254.1,95L338.8,0L423.5,76L508.2,76L592.9,19L677.6,114L762.4,171L847.1,171L931.8,95L1016.5,152L1101.2,0L1185.9,152L1270.6,38L1355.3,0L1440,171L1524.7,38L1609.4,19L1694.1,152L1778.8,57L1863.5,152L1948.2,38L2032.9,152L2032.9,190L1948.2,190L1863.5,190L1778.8,190L1694.1,190L1609.4,190L1524.7,190L1440,190L1355.3,190L1270.6,190L1185.9,190L1101.2,190L1016.5,190L931.8,190L847.1,190L762.4,190L677.6,190L592.9,190L508.2,190L423.5,190L338.8,190L254.1,190L169.4,190L84.7,190L0,190Z"/></svg>