<?xml version="1.0" standalone="no"?>
<svg xmlns:xlink="http://www.w3.org/1999/xlink" id="wave" style="transform:rotate(0deg); transition: 0.3s" viewBox="0 0 1440 290" version="1.1" xmlns="http://www.w3.org/2000/svg"><defs><linearGradient id="sw-gradient-0" x1="0" x2="0" y1="1" y2="0"><stop stop-color="rgba(234.829, 234.265, 234.083, 1)" offset="0%"/><stop stop-color="rgba(187.017, 187.017, 187.017, 1)" offset="100%"/></linearGradient></defs><path style="transform:translate(0, 0px); opacity:1" fill="url(#sw-gradient-0)" d="M0,203L160,174L320,174L480,87L640,145L800,87L960,87L1120,87L1280,203L1440,58L1600,116L1760,87L1920,87L2080,29L2240,87L2400,29L2560,29L2720,87L2880,203L3040,0L3200,58L3360,232L3520,87L3680,29L3840,0L3840,290L3680,290L3520,290L3360,290L3200,290L3040,290L2880,290L2720,290L2560,290L2400,290L2240,290L2080,290L1920,290L1760,290L1600,290L1440,290L1280,290L1120,290L960,290L800,290L640,290L480,290L320,290L160,290L0,290Z"/></svg>